
      <svg data-logo="logo" xmlns="http://www.w3.org/2000/svg" viewBox="0 0 236 42">
        <g id="logogram" transform="translate(0, 1) rotate(0) "><path fill-rule="evenodd" clip-rule="evenodd" d="M17 0C17.5523 0 18 0.447715 18 1V8.39648C18 8.61918 18.2693 8.7307 18.4268 8.57324L26.4141 0.585938C26.7891 0.210936 27.2978 7.97938e-05 27.8281 0H36.5859C36.8511 4.04019e-05 37.1055 0.105468 37.293 0.292969L40.293 3.29297C40.6834 3.68347 40.6834 4.31653 40.293 4.70703L36.4268 8.57324C36.2693 8.73073 36.3808 8.99997 36.6035 9H44.5859C44.8511 9.00004 45.1055 9.10547 45.293 9.29297L48.293 12.293C48.6834 12.6835 48.6834 13.3165 48.293 13.707L44.3535 17.6465C44.1583 17.8417 44.1583 18.1583 44.3535 18.3535L47.5859 21.5859C48.4914 22.4914 49 23.7195 49 25C49 26.2805 48.4913 27.5086 47.5859 28.4141L36.5859 39.4141C36.2109 39.7891 35.7022 39.9999 35.1719 40H32C31.4477 40 31 39.5523 31 39V31.6035C31 31.3808 30.7307 31.2693 30.5732 31.4268L22.5859 39.4141C22.2109 39.7891 21.7022 39.9999 21.1719 40H12.4141C12.1489 40 11.8945 39.8945 11.707 39.707L8.70703 36.707C8.31661 36.3165 8.31661 35.6835 8.70703 35.293L12.5732 31.4268C12.7307 31.2693 12.6192 31 12.3965 31H4.41406C4.1489 31 3.89453 30.8945 3.70703 30.707L0.707031 27.707C0.316606 27.3165 0.316607 26.6835 0.707031 26.293L4.64648 22.3535C4.8417 22.1583 4.8417 21.8417 4.64648 21.6465L1.41406 18.4141C0.508652 17.5086 0 16.2805 0 15C0 13.7195 0.508651 12.4914 1.41406 11.5859L12.4141 0.585938C12.7891 0.210936 13.2978 8.00463e-05 13.8281 0H17ZM20.0713 9C18.7452 9 17.4728 9.52716 16.5352 10.4648L5.85352 21.1465C5.53861 21.4615 5.76165 21.9999 6.20703 22H20.793C21.2383 22.0001 21.4613 22.5386 21.1465 22.8535L13.8535 30.1465C13.5386 30.4615 13.7616 30.9999 14.207 31H28.9287C30.2548 31 31.5272 30.4728 32.4648 29.5352L43.1465 18.8535C43.4417 18.5583 43.2642 18.0663 42.874 18.0059L42.793 18H28.207C27.7616 18 27.5386 17.4615 27.8535 17.1465L35.1465 9.85352C35.4614 9.53855 35.2384 9.00006 34.793 9H20.0713Z" fill="#297AFF"/></g>
        <g id="logotype" transform="translate(55, 7)"><path fill="#111111" d="M26.23 22.37L26.37 22.25Q26.37 22.47 26.29 22.66Q26.20 22.85 26.20 23.07L26.20 23.07Q26.20 23.24 26.27 23.40Q26.34 23.56 26.34 23.74L26.34 23.74Q26.34 23.87 26.29 24.17Q26.23 24.47 26.16 24.80Q26.08 25.12 26.00 25.40Q25.91 25.68 25.84 25.79L25.84 25.79L25.35 25.79Q25.28 26.15 25.11 26.52L25.11 26.52Q24.46 26.83 24.00 26.91Q23.53 27 23.00 27L23.00 27Q22.77 27 22.50 26.99Q22.24 26.98 21.93 26.98L21.93 26.98Q21.36 26.98 20.94 27.04Q20.51 27.10 20.01 27.39L20.01 27.39Q19.86 27.46 19.69 27.46L19.69 27.46Q19.36 27.46 19.05 27.39Q18.73 27.32 18.42 27.24Q18.12 27.15 17.80 27.09Q17.48 27.02 17.16 27.02L17.16 27.02Q16.70 27.02 16.24 26.92Q15.78 26.83 15.31 26.83L15.31 26.83Q14.97 26.83 14.65 26.89Q14.32 26.95 13.99 27.03Q13.66 27.10 13.33 27.16Q13.01 27.22 12.67 27.22L12.67 27.22Q12.36 27.22 12.07 27.15Q11.78 27.09 11.47 27.09L11.47 27.09Q10.92 27.09 10.38 27.18Q9.85 27.27 9.30 27.27L9.30 27.27Q8.58 27.27 8.11 26.92Q7.64 26.57 7.64 25.80L7.64 25.80Q7.64 25.50 7.78 25.26L7.78 25.26Q8.17 24.54 8.59 24.22Q9.01 23.91 9.39 23.77Q9.78 23.63 10.12 23.58Q10.46 23.53 10.72 23.36Q10.97 23.19 11.12 22.78Q11.26 22.37 11.26 21.51L11.26 21.51Q11.26 20.51 11.10 19.52Q10.94 18.54 10.94 17.52L10.94 17.52Q10.94 17.02 11.04 16.54Q11.14 16.06 11.14 15.57L11.14 15.57Q11.14 14.71 11.07 13.88Q10.99 13.05 10.99 12.22L10.99 12.22Q10.99 11.64 10.84 11.08Q10.68 10.53 10.68 9.94L10.68 9.94Q10.68 9.60 10.75 9.29Q10.82 8.97 10.82 8.65L10.82 8.65Q10.82 8.15 10.77 7.65Q10.72 7.16 10.68 6.66L10.68 6.66Q10.67 6.39 10.61 6.12Q10.55 5.86 10.41 5.66Q10.27 5.47 10.05 5.35Q9.83 5.23 9.50 5.23L9.50 5.23Q9.20 5.23 8.90 5.33Q8.60 5.43 8.27 5.43L8.27 5.43Q8.08 5.43 7.91 5.40Q7.74 5.36 7.57 5.31L7.57 5.31Q7.49 5.19 7.43 5.04Q7.37 4.89 7.30 4.74Q7.23 4.60 7.13 4.48Q7.03 4.37 6.84 4.34L6.84 4.34Q7.01 4.08 7.16 3.67Q7.32 3.26 7.51 2.89Q7.71 2.51 7.98 2.24Q8.26 1.96 8.65 1.96L8.65 1.96Q8.97 1.96 9.26 2.12Q9.54 2.27 9.86 2.27L9.86 2.27Q10.27 2.27 10.65 2.10Q11.02 1.93 11.45 1.93L11.45 1.93Q11.79 1.93 12.07 2.17L12.07 2.17Q12.37 2.08 12.63 2.08L12.63 2.08Q12.80 2.08 12.96 2.13Q13.13 2.19 13.30 2.19L13.30 2.19Q13.81 2.19 14.30 2.04Q14.78 1.90 15.30 1.90L15.30 1.90Q15.71 1.90 16.08 2.01Q16.46 2.13 16.82 2.30Q17.18 2.46 17.54 2.63Q17.89 2.80 18.29 2.89L18.29 2.89Q18.30 2.97 18.31 3.03Q18.32 3.09 18.32 3.18L18.32 3.18L18.32 3.25L18.30 3.31Q18.29 3.64 18.19 3.95Q18.08 4.27 18.03 4.58L18.03 4.58Q17.95 4.99 17.73 5.10Q17.52 5.21 17.21 5.21L17.21 5.21Q17.07 5.21 16.92 5.20Q16.77 5.19 16.63 5.19L16.63 5.19Q16.00 5.19 15.37 5.29Q14.75 5.38 14.15 5.57L14.15 5.57Q13.98 5.89 13.98 6.29L13.98 6.29Q13.98 6.59 14.05 6.90Q14.12 7.21 14.15 7.52L14.15 7.52Q13.96 7.48 13.82 7.42Q13.67 7.36 13.49 7.36L13.49 7.36Q13.35 7.36 13.24 7.52Q13.13 7.67 13.13 7.81L13.13 7.81Q13.13 7.93 13.21 8.01Q13.30 8.10 13.42 8.15Q13.54 8.20 13.67 8.22Q13.81 8.24 13.90 8.24L13.90 8.24L13.91 8.58Q13.91 9.21 13.77 9.82Q13.62 10.42 13.62 11.06L13.62 11.06Q13.62 11.24 13.66 11.43Q13.71 11.62 13.71 11.81L13.71 11.81Q13.71 12.03 13.58 12.08Q13.45 12.13 13.31 12.13Q13.16 12.13 13.03 12.15Q12.90 12.17 12.90 12.30L12.90 12.30Q12.90 12.35 12.92 12.39L12.92 12.39Q12.85 12.52 12.85 12.63L12.85 12.63Q12.85 12.78 12.97 12.82Q13.09 12.85 13.23 12.86Q13.37 12.87 13.49 12.89Q13.60 12.92 13.60 13.04L13.60 13.04Q13.60 13.23 13.55 13.39Q13.50 13.55 13.50 13.72L13.50 13.72Q13.50 14.18 13.69 14.61Q13.88 15.04 13.88 15.50L13.88 15.50Q13.88 15.91 13.77 16.31Q13.66 16.71 13.66 17.12L13.66 17.12Q13.66 17.38 13.73 17.63Q13.81 17.87 13.90 18.12Q14.00 18.37 14.07 18.62Q14.15 18.87 14.15 19.12L14.15 19.12Q14.15 19.48 14.03 19.82Q13.91 20.16 13.91 20.52L13.91 20.52Q13.91 20.61 13.95 20.78L13.95 20.78Q14.02 21.17 14.07 21.71Q14.13 22.25 14.29 22.74Q14.44 23.22 14.75 23.56Q15.06 23.91 15.62 23.91L15.62 23.91Q16.15 23.91 16.65 23.74Q17.14 23.58 17.67 23.58L17.67 23.58Q18.00 23.58 18.31 23.66Q18.63 23.74 18.94 23.84Q19.24 23.94 19.56 24.02Q19.88 24.09 20.22 24.09L20.22 24.09Q20.73 24.09 21.24 23.98Q21.74 23.86 22.25 23.77L22.25 23.77Q22.97 23.63 23.33 23.28Q23.69 22.93 23.69 22.16L23.69 22.16Q23.69 21.39 23.51 20.67Q23.33 19.94 23.33 19.17L23.33 19.17Q23.33 18.71 23.47 18.28Q23.60 17.84 23.89 17.50L23.89 17.50Q24.30 17.36 24.71 17.36L24.71 17.36Q25.47 17.36 25.77 17.85Q26.08 18.34 26.08 19.00L26.08 19.00Q26.08 19.29 25.96 19.40Q25.84 19.51 25.84 19.62L25.84 19.62Q25.84 19.65 25.91 19.71Q25.98 19.77 26.06 19.86Q26.15 19.94 26.22 20.06Q26.29 20.18 26.29 20.32L26.29 20.32Q26.29 20.44 26.18 20.49L26.18 20.49Q26.18 20.68 26.17 20.95Q26.15 21.22 26.14 21.50Q26.13 21.77 26.15 22.01Q26.17 22.25 26.23 22.37L26.23 22.37ZM44.62 23.43L44.62 23.43Q44.62 23.89 44.48 24.21Q44.33 24.54 44.10 24.80Q43.87 25.05 43.57 25.27Q43.27 25.50 42.97 25.75L42.97 25.75Q42.73 25.96 42.54 26.06Q42.35 26.16 42.17 26.23Q41.99 26.30 41.79 26.37Q41.60 26.44 41.34 26.56L41.34 26.56Q41 26.73 40.77 26.87Q40.54 27.02 40.31 27.14Q40.08 27.26 39.80 27.33Q39.53 27.41 39.12 27.46L39.12 27.46Q38.44 27.55 37.74 27.67Q37.05 27.79 36.37 27.79L36.37 27.79Q36.23 27.79 36.09 27.73Q35.94 27.67 35.75 27.61Q35.57 27.55 35.33 27.49Q35.10 27.43 34.78 27.43L34.78 27.43Q34.44 27.43 34.23 27.32Q34.03 27.22 33.86 27.09Q33.70 26.95 33.53 26.79Q33.36 26.62 33.09 26.50L33.09 26.50Q32.06 26.04 31.34 25.39Q30.63 24.74 30.11 23.94Q29.60 23.14 29.26 22.20Q28.92 21.26 28.68 20.23L28.68 20.23Q28.49 19.51 28.49 18.80L28.49 18.80Q28.49 17.86 28.93 17.05L28.93 17.05Q28.76 16.58 28.76 16.13L28.76 16.13Q28.76 15.81 28.95 15.17Q29.14 14.52 29.44 13.88Q29.74 13.23 30.09 12.70Q30.44 12.18 30.75 12.06L30.75 12.06Q30.99 11.98 31.08 11.92Q31.17 11.86 31.17 11.58L31.17 11.58Q31.17 11.38 31.34 11.24Q31.50 11.11 31.73 11.02Q31.96 10.94 32.19 10.87Q32.42 10.80 32.57 10.73L32.57 10.73Q33.21 10.42 33.78 10.21Q34.35 10.00 34.92 9.85Q35.50 9.71 36.11 9.64Q36.73 9.57 37.43 9.57L37.43 9.57Q37.80 9.57 38.16 9.67Q38.52 9.77 38.86 9.94Q39.19 10.10 39.51 10.29Q39.84 10.49 40.15 10.68L40.15 10.68L40.13 10.68Q40.38 10.71 40.62 10.82Q40.85 10.94 41.10 10.97L41.10 10.97Q41.34 11.26 41.73 11.53Q42.11 11.79 42.48 12.08Q42.85 12.37 43.11 12.70Q43.38 13.04 43.38 13.46L43.38 13.46Q43.38 13.53 43.37 13.60Q43.36 13.67 43.34 13.76L43.34 13.76L43.41 13.67Q43.48 13.72 43.54 13.84Q43.60 13.96 43.65 14.11Q43.70 14.25 43.73 14.40Q43.77 14.54 43.79 14.63L43.79 14.63Q43.92 14.85 44.15 14.99Q44.38 15.12 44.52 15.36L44.52 15.36Q44.35 15.53 44.35 15.81L44.35 15.81Q44.35 16.10 44.47 16.38Q44.59 16.66 44.59 16.95L44.59 16.95Q44.59 17.29 44.55 17.61Q44.52 17.93 44.52 18.27L44.52 18.27Q44.52 18.52 44.32 18.66Q44.13 18.80 43.90 18.90Q43.67 19.00 43.48 19.10Q43.29 19.21 43.29 19.40L43.29 19.40Q43.29 19.53 43.13 19.52Q42.97 19.51 42.86 19.51L42.86 19.51Q42.11 19.51 41.37 19.33Q40.62 19.14 39.89 19.14L39.89 19.14Q39.09 19.14 38.30 19.25Q37.51 19.36 36.71 19.36L36.71 19.36Q36.11 19.36 35.52 19.33Q34.93 19.29 34.33 19.29L34.33 19.29Q34.18 19.29 33.75 19.35Q33.33 19.41 32.86 19.51Q32.39 19.60 31.96 19.73Q31.53 19.86 31.36 19.98L31.36 19.98Q31.34 20.06 31.34 20.22L31.34 20.22Q31.34 21.02 31.81 21.87Q32.28 22.73 33.05 23.43Q33.82 24.13 34.78 24.59Q35.74 25.05 36.71 25.05L36.71 25.05Q37.27 25.05 37.83 25.09Q38.39 25.14 38.92 25.34L38.92 25.34Q39.38 25.12 39.76 24.83Q40.15 24.54 40.50 24.21Q40.86 23.89 41.21 23.55Q41.55 23.21 41.91 22.86L41.91 22.86Q41.97 22.80 42.24 22.74Q42.50 22.68 42.81 22.63Q43.12 22.59 43.40 22.57Q43.68 22.54 43.79 22.54L43.79 22.54Q44.18 22.54 44.52 22.66L44.52 22.66Q44.62 23.05 44.62 23.43ZM42.06 16.49L42.06 16.49Q42.06 16.23 41.97 15.99Q41.89 15.75 41.84 15.50L41.84 15.50Q41.75 15.02 41.75 14.57Q41.75 14.11 41.62 13.65L41.62 13.65L41.60 13.65Q41.60 13.76 41.53 13.85Q41.46 13.94 41.34 13.94L41.34 13.94Q41.14 13.94 40.95 13.84Q40.76 13.74 40.62 13.58L40.62 13.58Q39.97 13.29 39.45 13.04Q38.93 12.78 38.41 12.58Q37.89 12.39 37.30 12.28Q36.71 12.17 35.94 12.17L35.94 12.17Q35.87 12.17 35.81 12.17Q35.75 12.18 35.70 12.23L35.70 12.23L35.79 12.42L35.65 12.46Q35.19 12.54 34.89 12.62Q34.59 12.70 34.35 12.83Q34.11 12.97 33.88 13.17Q33.65 13.36 33.29 13.67L33.29 13.67Q33.12 13.82 32.93 13.90Q32.73 13.98 32.53 14.04Q32.34 14.10 32.16 14.17Q31.98 14.23 31.86 14.39L31.86 14.39Q31.74 14.81 31.51 15.22Q31.28 15.62 31.28 16.06L31.28 16.06Q31.28 16.32 31.49 16.52Q31.70 16.71 32.04 16.85Q32.37 16.99 32.77 17.09Q33.17 17.19 33.57 17.24Q33.96 17.29 34.29 17.32Q34.63 17.34 34.81 17.34L34.81 17.34Q35.46 17.34 36.10 17.22Q36.73 17.09 37.38 17.09L37.38 17.09Q38.04 17.09 38.71 17.15Q39.38 17.21 40.04 17.21L40.04 17.21Q40.21 17.21 40.56 17.19Q40.90 17.17 41.23 17.10Q41.56 17.02 41.81 16.87Q42.06 16.73 42.06 16.49ZM63.20 20.93L63.20 20.93Q63.20 21.48 63.08 21.97Q62.96 22.45 62.81 22.92Q62.65 23.39 62.49 23.88Q62.33 24.37 62.24 24.88L62.24 24.88Q62.09 25.74 61.63 26.30Q61.17 26.86 60.52 27.20Q59.87 27.53 59.07 27.69Q58.28 27.85 57.44 27.94Q56.60 28.03 55.79 28.06Q54.98 28.09 54.30 28.18L54.30 28.18Q54.04 27.99 53.87 27.77Q53.70 27.55 53.54 27.35Q53.39 27.15 53.20 27.03Q53.01 26.90 52.71 26.90L52.71 26.90Q52.60 26.90 52.54 26.62Q52.48 26.33 52.43 25.98Q52.38 25.63 52.32 25.35Q52.26 25.07 52.16 25.07L52.16 25.07Q51.77 25.07 51.54 24.90Q51.31 24.73 51.18 24.46Q51.05 24.20 51.01 23.87Q50.96 23.55 50.96 23.24L50.96 23.24Q50.96 23.00 50.86 22.80Q50.76 22.59 50.64 22.39Q50.52 22.20 50.42 21.99Q50.31 21.79 50.31 21.57L50.31 21.57Q50.31 21.31 50.34 20.92Q50.37 20.54 50.39 20.13Q50.42 19.72 50.44 19.33Q50.47 18.93 50.47 18.68L50.47 18.68Q50.47 18.37 50.54 18.16Q50.62 17.96 50.72 17.81Q50.83 17.65 50.90 17.53Q50.98 17.41 50.98 17.26L50.98 17.26Q50.98 17.05 50.89 16.92Q50.79 16.78 50.79 16.64L50.79 16.64Q50.79 16.46 50.91 16.28Q51.03 16.10 51.08 15.91L51.08 15.91Q51.27 15.16 51.27 14.42L51.27 14.42Q51.27 14.27 51.26 14.12Q51.25 13.98 51.24 13.84L51.24 13.84Q50.84 13.52 50.37 13.42Q49.89 13.33 49.41 13.29Q48.93 13.24 48.49 13.17Q48.04 13.11 47.73 12.82L47.73 12.82Q47.48 12.58 47.27 12.28Q47.07 11.98 46.73 11.88L46.73 11.88Q46.49 11.79 46.32 11.64Q46.16 11.50 46.16 11.23L46.16 11.23Q46.16 10.82 46.41 10.60Q46.66 10.39 47.00 10.26Q47.34 10.13 47.71 10.04Q48.08 9.94 48.33 9.76L48.33 9.76Q48.59 9.57 48.95 9.57L48.95 9.57Q49.10 9.57 49.25 9.58Q49.39 9.59 49.54 9.59L49.54 9.59Q49.97 9.59 50.25 9.44Q50.54 9.29 50.70 9.05Q50.86 8.80 50.92 8.47Q50.98 8.15 50.98 7.77L50.98 7.77Q50.98 7.23 50.91 6.71Q50.84 6.20 50.84 5.65L50.84 5.65Q50.84 5.02 51.01 4.49Q51.19 3.96 51.66 3.52L51.66 3.52Q51.77 3.43 51.89 3.30Q52.01 3.16 52.14 3.03Q52.28 2.90 52.42 2.82Q52.57 2.73 52.72 2.73L52.72 2.73Q52.83 2.73 52.90 2.78Q52.98 2.82 53.07 2.89L53.07 2.89Q53.44 3.26 53.55 3.44Q53.66 3.62 53.66 3.86L53.66 3.86Q53.66 4.00 53.66 4.16Q53.65 4.32 53.65 4.58L53.65 4.58Q53.65 5.13 53.78 5.65Q53.92 6.18 53.92 6.56L53.92 6.56Q53.92 6.89 53.79 7.18Q53.66 7.48 53.66 7.81L53.66 7.81Q53.66 8.05 53.77 8.24Q53.89 8.44 54.03 8.63Q54.18 8.82 54.30 9.01Q54.42 9.21 54.42 9.47L54.42 9.47Q54.59 9.59 55.18 9.68Q55.78 9.77 56.52 9.83Q57.25 9.89 58.00 9.93Q58.76 9.96 59.25 9.96L59.25 9.96Q59.70 9.96 59.94 10.03Q60.17 10.10 60.34 10.18Q60.50 10.25 60.64 10.34Q60.77 10.42 61.00 10.44L61.00 10.44Q61.27 10.47 61.47 10.59Q61.66 10.70 61.66 11.02L61.66 11.02Q61.66 11.43 61.45 11.67Q61.23 11.91 60.92 12.03Q60.60 12.15 60.24 12.17Q59.88 12.20 59.58 12.20L59.58 12.20Q59.08 12.20 58.59 12.17Q58.09 12.13 57.59 12.13L57.59 12.13Q56.77 12.13 56.11 12.29Q55.44 12.44 54.95 12.80Q54.47 13.16 54.20 13.75Q53.94 14.34 53.94 15.23L53.94 15.23Q53.94 16.10 54.05 16.93Q54.16 17.77 54.16 18.64L54.16 18.64Q54.16 19.46 54.18 19.96Q54.21 20.45 54.38 20.80L54.38 20.80Q54.60 21.29 54.74 21.92Q54.88 22.56 55.09 23.12Q55.30 23.68 55.69 24.07Q56.07 24.45 56.83 24.45L56.83 24.45Q57.08 24.45 57.51 24.39Q57.94 24.32 58.36 24.17Q58.79 24.03 59.10 23.80Q59.41 23.56 59.41 23.22L59.41 23.22Q59.41 22.93 59.23 22.63Q59.06 22.33 59.06 21.99L59.06 21.99Q59.06 21.75 59.18 21.57Q59.29 21.39 59.47 21.25Q59.65 21.10 59.84 20.99Q60.04 20.88 60.23 20.80L60.23 20.80Q60.53 20.40 60.97 20.14Q61.41 19.87 61.90 19.87L61.90 19.87Q62.24 19.87 62.56 19.99Q62.88 20.11 63.15 20.30L63.15 20.30Q63.20 20.61 63.20 20.93ZM67.73 11.28L67.73 11.28Q67.42 11.28 67.18 11.02Q66.94 10.76 66.79 10.42Q66.63 10.08 66.58 9.74Q66.53 9.40 66.62 9.21L66.62 9.21Q66.57 9.18 66.55 9.06Q66.53 8.94 66.52 8.80Q66.50 8.66 66.50 8.53Q66.50 8.41 66.50 8.34L66.50 8.34Q66.50 8.22 66.59 8.18Q66.69 8.15 66.77 8.01L66.77 8.01Q66.84 7.89 66.75 7.78Q66.65 7.67 66.51 7.59Q66.36 7.52 66.22 7.46Q66.07 7.40 66.07 7.38L66.07 7.38Q66.12 6.97 66.07 6.62Q66.02 6.27 65.94 5.97Q65.87 5.67 65.80 5.43Q65.73 5.19 65.73 4.99L65.73 4.99Q65.73 4.71 65.69 4.38Q65.66 4.05 65.67 3.73Q65.68 3.42 65.75 3.14Q65.83 2.87 66.05 2.70L66.05 2.70Q66.22 2.58 66.53 2.50Q66.84 2.42 67.18 2.42Q67.52 2.41 67.85 2.45Q68.17 2.49 68.36 2.61L68.36 2.61Q68.67 2.80 68.80 3.06Q68.92 3.31 68.96 3.60Q68.99 3.88 68.97 4.15Q68.94 4.42 68.94 4.63L68.94 4.63Q68.94 5.04 68.83 5.45Q68.72 5.86 68.72 6.27L68.72 6.27Q68.72 6.65 68.70 6.95Q68.69 7.24 68.69 7.62L68.69 7.62Q68.69 7.94 68.57 8.41Q68.45 8.88 68.45 9.21L68.45 9.21Q68.45 9.41 68.43 9.73Q68.41 10.05 68.34 10.36Q68.28 10.68 68.13 10.94Q67.98 11.19 67.73 11.28ZM87.67 21.77L87.67 21.77Q87.67 21.99 87.60 22.21Q87.52 22.42 87.42 22.63Q87.31 22.85 87.22 23.05Q87.13 23.26 87.09 23.48L87.09 23.48Q87.01 23.94 86.74 24.31Q86.48 24.68 86.13 25.00Q85.79 25.33 85.42 25.62Q85.04 25.92 84.75 26.23L84.75 26.23Q84.49 26.49 84.20 26.49L84.20 26.49Q84.03 26.49 83.88 26.45Q83.72 26.42 83.55 26.42L83.55 26.42Q83.31 26.42 83.17 26.50Q83.02 26.59 82.90 26.68Q82.77 26.78 82.59 26.86Q82.41 26.95 82.10 26.95L82.10 26.95Q81.88 26.95 81.67 27.07Q81.47 27.19 81.26 27.19L81.26 27.19Q80.97 27.19 80.59 27.02Q80.20 26.85 79.74 26.85L79.74 26.85Q79.45 26.85 79.16 26.87Q78.87 26.90 78.58 26.90L78.58 26.90Q78.32 26.90 78.08 26.82Q77.83 26.74 77.60 26.65Q77.37 26.56 77.13 26.48Q76.89 26.40 76.63 26.40L76.63 26.40Q76.12 26.40 75.76 26.66Q75.40 26.91 75.12 27.23Q74.84 27.55 74.56 27.80Q74.27 28.06 73.92 28.06L73.92 28.06Q73.59 28.06 73.48 27.95Q73.37 27.84 73.34 27.68Q73.32 27.53 73.30 27.35Q73.28 27.17 73.15 27.03L73.15 27.03Q72.89 26.76 72.80 26.53Q72.72 26.30 72.72 25.92L72.72 25.92Q72.72 25.10 72.86 24.33Q73.01 23.55 73.01 22.73L73.01 22.73Q73.01 22.44 72.94 22.16Q72.87 21.89 72.78 21.67Q72.68 21.45 72.62 21.29Q72.55 21.14 72.55 21.07L72.55 21.07Q72.55 20.92 72.63 20.75Q72.72 20.57 72.83 20.43Q72.94 20.28 73.07 20.19Q73.20 20.10 73.28 20.10L73.28 20.10Q73.45 20.10 73.58 20.18Q73.71 20.27 73.84 20.36Q73.97 20.45 74.09 20.54Q74.22 20.63 74.41 20.63L74.41 20.63Q74.44 20.63 74.46 20.62Q74.48 20.61 74.51 20.61L74.51 20.61Q74.75 21.00 74.89 21.45Q75.03 21.91 75.17 22.34Q75.32 22.78 75.53 23.18Q75.74 23.58 76.14 23.89L76.14 23.89Q76.24 23.98 76.38 24.08Q76.51 24.18 76.66 24.28Q76.80 24.39 76.95 24.45Q77.09 24.52 77.21 24.52L77.21 24.52Q77.40 24.52 77.58 24.49Q77.76 24.45 77.95 24.45L77.95 24.45Q78.20 24.45 78.20 24.62L78.20 24.62Q78.20 24.66 78.17 24.76L78.17 24.76L78.38 24.76L78.50 24.76Q79.14 24.76 79.79 24.61Q80.44 24.45 81.11 24.45L81.11 24.45Q81.42 24.45 81.73 24.51Q82.05 24.57 82.31 24.76L82.31 24.76Q82.63 24.61 82.85 24.37Q83.08 24.13 83.30 23.90Q83.52 23.67 83.79 23.49Q84.07 23.31 84.49 23.29L84.49 23.29Q84.58 23.19 84.59 23.05Q84.60 22.92 84.60 22.79Q84.60 22.66 84.62 22.54Q84.65 22.42 84.75 22.32L84.75 22.32Q84.92 22.16 85.01 22.00Q85.11 21.84 85.11 21.60L85.11 21.60Q85.11 21.14 84.85 20.74Q84.60 20.33 84.19 20.00Q83.79 19.67 83.27 19.40Q82.75 19.14 82.21 18.95Q81.67 18.76 81.18 18.67Q80.68 18.57 80.31 18.57L80.31 18.57Q79.88 18.57 79.46 18.65Q79.04 18.73 78.65 18.92L78.65 18.92Q78.65 18.54 78.48 18.42Q78.31 18.30 78.07 18.25Q77.83 18.20 77.58 18.10Q77.33 18.01 77.20 17.69L77.20 17.69Q76.91 18.06 76.47 18.23Q76.03 18.40 75.59 18.40L75.59 18.40Q75.15 18.40 74.77 18.23Q74.39 18.06 74.09 17.77Q73.80 17.48 73.62 17.10Q73.44 16.73 73.42 16.30L73.42 16.30Q73.40 16.01 73.30 15.79Q73.20 15.57 73.08 15.36Q72.96 15.16 72.86 14.93Q72.77 14.71 72.77 14.40L72.77 14.40Q72.77 13.64 72.85 13.20Q72.92 12.76 73.04 12.53Q73.16 12.30 73.31 12.21Q73.45 12.11 73.61 12.02Q73.76 11.93 73.90 11.76Q74.03 11.58 74.12 11.21L74.12 11.21Q74.17 10.95 74.27 10.87Q74.38 10.78 74.63 10.75L74.63 10.75Q74.85 10.71 74.92 10.65Q74.99 10.58 75.02 10.49Q75.04 10.41 75.08 10.31Q75.11 10.22 75.25 10.13L75.25 10.13Q75.61 9.89 75.96 9.83Q76.31 9.77 76.68 9.77L76.68 9.77Q76.91 9.77 77.11 9.78Q77.32 9.79 77.56 9.79L77.56 9.79Q78.27 9.79 78.96 9.72Q79.64 9.65 80.36 9.65L80.36 9.65Q80.90 9.65 81.36 9.76Q81.81 9.88 82.15 10.01Q82.49 10.15 82.74 10.26Q82.99 10.37 83.14 10.37L83.14 10.37Q83.43 10.37 83.70 10.26Q83.96 10.15 84.25 10.13L84.25 10.13Q84.39 10.25 84.57 10.35Q84.75 10.44 84.94 10.44L84.94 10.44Q85.07 10.44 85.14 10.35Q85.21 10.27 85.23 10.13L85.23 10.13Q85.47 10.20 85.69 10.37Q85.91 10.54 86.09 10.77Q86.27 11.00 86.37 11.27Q86.48 11.53 86.48 11.77L86.48 11.77Q86.48 12.41 86.38 13.03Q86.29 13.65 86.29 14.29L86.29 14.29Q86.29 14.93 86.46 15.50L86.46 15.50Q86.22 15.69 85.94 15.83Q85.66 15.98 85.47 16.23L85.47 16.23L85.45 16.22Q85.33 16.11 85.15 15.95Q84.97 15.79 84.78 15.64Q84.58 15.48 84.39 15.37Q84.20 15.26 84.05 15.26L84.05 15.26L84.02 15.26Q83.93 15.21 83.87 15.14Q83.81 15.07 83.81 14.97L83.81 14.97Q83.81 14.80 83.91 14.66Q84.02 14.52 84.02 14.35L84.02 14.35Q84.02 14.30 83.86 14.11Q83.71 13.93 83.51 13.73Q83.31 13.53 83.13 13.37Q82.94 13.21 82.85 13.19L82.85 13.19Q82.68 13.16 82.49 13.07Q82.31 12.99 82.12 12.90Q81.93 12.82 81.77 12.75Q81.61 12.68 81.50 12.68L81.50 12.68Q81.28 12.68 81.06 12.74Q80.84 12.80 80.60 12.82L80.60 12.82L80.61 12.82L79.85 12.73Q79.28 12.66 78.73 12.46Q78.19 12.25 77.61 12.25L77.61 12.25Q77.09 12.25 76.85 12.49Q76.62 12.73 76.46 13.03Q76.31 13.33 76.15 13.57Q76 13.81 75.64 13.81L75.64 13.81Q75.54 13.81 75.49 13.79L75.49 13.79Q75.66 14.34 75.80 14.71Q75.95 15.09 76.15 15.39Q76.36 15.69 76.67 15.95Q76.97 16.22 77.45 16.52L77.45 16.52Q77.50 16.56 77.60 16.64Q77.69 16.73 77.79 16.82Q77.90 16.92 77.99 16.99Q78.08 17.05 78.14 17.05L78.14 17.05Q78.43 17.05 78.69 16.92Q78.96 16.78 79.25 16.78L79.25 16.78Q79.45 16.78 79.63 16.87Q79.81 16.97 80.02 16.97L80.02 16.97Q80.22 16.97 80.41 16.89Q80.60 16.81 80.82 16.81L80.82 16.81Q80.90 16.81 81.00 16.83Q81.09 16.85 81.18 16.87L81.18 16.87Q81.69 17.00 82.20 16.99Q82.72 16.99 83.25 17.00L83.25 17.00Q83.62 17.00 84.01 17.14Q84.39 17.28 84.75 17.49Q85.11 17.70 85.42 17.98Q85.72 18.25 85.95 18.54L85.95 18.54Q86.12 18.78 86.32 18.97Q86.53 19.16 86.72 19.35Q86.92 19.55 87.07 19.77Q87.23 19.99 87.30 20.28L87.30 20.28Q87.38 20.63 87.53 21.04Q87.67 21.45 87.67 21.77ZM121.12 24.30L121.12 24.30Q121.12 24.45 121.10 24.71Q121.08 24.97 120.93 25.05L120.93 25.05Q120.76 25.14 120.72 25.34Q120.67 25.55 120.67 25.75Q120.67 25.96 120.66 26.12Q120.64 26.28 120.52 26.28L120.52 26.28Q120.43 26.28 120.38 26.24Q120.33 26.20 120.25 26.20L120.25 26.20Q120.16 26.20 120.07 26.28Q119.99 26.37 119.99 26.45L119.99 26.45Q119.99 26.54 120.05 26.58Q120.11 26.62 120.11 26.71L120.11 26.71Q120.11 26.78 119.85 26.87Q119.60 26.97 119.27 27.06Q118.95 27.15 118.64 27.21Q118.33 27.27 118.23 27.27L118.23 27.27Q117.61 27.27 117.00 27.05Q116.38 26.83 115.80 26.64L115.80 26.64Q115.10 26.40 114.77 25.85Q114.44 25.31 114.28 24.62Q114.13 23.94 114.05 23.22Q113.97 22.51 113.77 21.94L113.77 21.94Q113.68 21.69 113.68 21.51L113.68 21.51Q113.68 21.34 113.73 21.23Q113.77 21.12 113.83 21.04Q113.89 20.97 113.93 20.91Q113.97 20.85 113.97 20.78L113.97 20.78Q113.97 20.57 113.85 20.37Q113.73 20.16 113.73 19.82L113.73 19.82Q113.73 19.63 113.74 19.45Q113.75 19.28 113.75 19.09L113.75 19.09Q113.75 18.46 113.64 18.04Q113.53 17.63 113.33 17.29Q113.14 16.95 112.87 16.61Q112.61 16.27 112.28 15.79L112.28 15.79Q112.13 15.82 111.97 15.82Q111.80 15.82 111.63 15.82L111.63 15.82Q111.29 15.82 110.96 15.79Q110.62 15.75 110.28 15.75L110.28 15.75Q109.92 15.75 109.56 15.82Q109.19 15.89 108.81 15.89L108.81 15.89Q108.57 15.89 108.33 15.81Q108.09 15.74 107.86 15.74L107.86 15.74Q107.56 15.74 107.27 15.85Q106.98 15.96 106.74 16.16Q106.51 16.35 106.36 16.62Q106.21 16.88 106.21 17.19L106.21 17.19L106.21 17.74Q106.21 19.22 105.96 20.66L105.96 20.66Q105.92 20.88 105.89 21.10Q105.86 21.31 105.86 21.55L105.86 21.55Q105.86 22.25 106.14 22.68Q106.42 23.10 106.83 23.37Q107.24 23.63 107.74 23.80Q108.23 23.98 108.64 24.15Q109.05 24.33 109.33 24.59Q109.62 24.85 109.62 25.29L109.62 25.29Q109.62 25.46 109.56 25.61Q109.50 25.75 109.41 25.89L109.41 25.89Q109.19 26.25 108.99 26.43Q108.80 26.61 108.56 26.71Q108.33 26.81 108.06 26.86Q107.79 26.91 107.41 27L107.41 27Q107.12 27.07 106.80 27.09Q106.49 27.12 106.18 27.12L106.18 27.12Q105.70 27.12 105.24 27.01Q104.78 26.90 104.30 26.90L104.30 26.90Q103.94 26.90 103.57 26.96Q103.21 27.02 102.85 27.09Q102.49 27.17 102.13 27.23Q101.77 27.29 101.41 27.29L101.41 27.29Q101.17 27.29 100.89 27.24Q100.61 27.19 100.37 27.06Q100.13 26.93 99.97 26.73Q99.81 26.52 99.81 26.23L99.81 26.23Q99.81 25.99 99.93 25.80Q100.05 25.62 100.24 25.48Q100.44 25.34 100.66 25.26Q100.88 25.17 101.09 25.15L101.09 25.15Q101.28 25.14 101.40 25.14Q101.53 25.14 101.63 25.10Q101.72 25.07 101.82 25.00Q101.93 24.93 102.06 24.80L102.06 24.80Q102.15 24.71 102.22 24.66Q102.30 24.61 102.42 24.61L102.42 24.61Q102.51 24.61 102.59 24.62Q102.68 24.64 102.76 24.64L102.76 24.64Q102.90 24.64 103.04 24.56L103.04 24.56Q103.40 24.35 103.55 24.03Q103.70 23.70 103.75 23.32Q103.81 22.93 103.81 22.52Q103.82 22.11 103.91 21.77L103.91 21.77Q103.99 21.39 103.99 21.07L103.99 21.07Q103.99 20.47 103.85 19.89Q103.70 19.31 103.70 18.71L103.70 18.71Q103.70 17.99 103.81 17.28Q103.91 16.56 103.91 15.84L103.91 15.84Q103.91 15.65 103.90 15.48Q103.89 15.31 103.89 15.12L103.89 15.12Q103.89 13.89 104.04 12.70Q104.20 11.50 104.20 10.27L104.20 10.27Q104.20 9.93 104.18 9.60Q104.16 9.28 104.13 8.94L104.13 8.94Q104.10 8.66 104.06 8.26Q104.03 7.86 103.96 7.43Q103.89 7.00 103.78 6.58Q103.67 6.15 103.47 5.82Q103.28 5.48 102.99 5.27Q102.71 5.06 102.32 5.06L102.32 5.06Q102.23 5.06 102.14 5.07Q102.04 5.09 101.96 5.09L101.96 5.09Q101.77 5.09 101.65 4.98Q101.53 4.87 101.46 4.71Q101.40 4.54 101.37 4.36Q101.34 4.17 101.34 4.03L101.34 4.03Q101.34 3.45 101.64 3.18Q101.94 2.90 102.38 2.80Q102.81 2.70 103.32 2.71Q103.82 2.72 104.22 2.68L104.22 2.68Q104.66 2.65 105.10 2.53Q105.53 2.41 105.99 2.41L105.99 2.41Q106.66 2.41 107.31 2.58Q107.96 2.75 108.62 2.75L108.62 2.75Q109.17 2.75 109.68 2.66Q110.20 2.56 110.71 2.39L110.71 2.39Q110.97 2.31 111.17 2.31L111.17 2.31Q111.84 2.31 112.49 2.48Q113.14 2.65 113.79 2.68L113.79 2.68Q114.23 2.72 114.71 2.84Q115.19 2.97 115.61 3.20Q116.02 3.43 116.33 3.79Q116.64 4.15 116.73 4.63L116.73 4.63Q116.78 4.92 116.96 5.18Q117.15 5.45 117.37 5.66Q117.58 5.88 117.74 6.06Q117.90 6.24 117.90 6.36L117.90 6.36Q117.90 6.48 117.79 6.53Q117.68 6.59 117.68 6.73L117.68 6.73Q117.68 6.82 117.79 6.92Q117.90 7.02 118.04 7.16Q118.18 7.30 118.29 7.46Q118.40 7.62 118.40 7.81L118.40 7.81Q118.40 8.06 118.24 8.26Q118.08 8.46 118.08 8.71L118.08 8.71L118.11 8.77L118.35 8.70L118.38 8.73Q118.45 9.00 118.44 9.30Q118.43 9.60 118.43 9.84L118.43 9.84Q118.43 10.17 118.42 10.56Q118.40 10.95 118.33 11.33Q118.26 11.70 118.13 12.03Q117.99 12.35 117.73 12.54L117.73 12.54Q117.58 12.66 117.42 12.72Q117.25 12.78 117.10 12.86Q116.95 12.94 116.83 13.05Q116.71 13.17 116.64 13.38L116.64 13.38Q116.55 13.67 116.35 13.93Q116.14 14.18 115.93 14.43Q115.72 14.68 115.55 14.93Q115.39 15.19 115.39 15.50L115.39 15.50Q115.39 15.99 115.62 16.42Q115.85 16.85 116.04 17.29L116.04 17.29Q116.23 17.75 116.31 18.22Q116.40 18.69 116.44 19.17Q116.49 19.65 116.51 20.13Q116.54 20.61 116.61 21.09L116.61 21.09Q116.64 21.29 116.77 21.76Q116.90 22.23 117.08 22.71Q117.27 23.19 117.51 23.55Q117.75 23.91 118.01 23.91L118.01 23.91Q118.23 23.91 118.37 23.67Q118.50 23.43 118.63 23.12Q118.76 22.81 118.92 22.52Q119.08 22.23 119.36 22.13L119.36 22.13Q119.89 22.18 120.24 22.33Q120.59 22.49 120.78 22.75Q120.96 23.02 121.04 23.40Q121.12 23.79 121.12 24.30ZM116.01 8.58L116.01 8.58Q116.01 8.34 115.90 8.02Q115.80 7.71 115.65 7.38Q115.49 7.06 115.32 6.77Q115.14 6.48 114.96 6.29L114.96 6.29Q114.61 6.29 114.49 6.24Q114.37 6.18 114.33 6.11Q114.30 6.03 114.26 5.93Q114.21 5.83 114.01 5.72L114.01 5.72Q113.41 5.43 112.93 5.28Q112.45 5.13 111.79 5.13L111.79 5.13Q111.60 5.13 111.42 5.23Q111.24 5.33 111.10 5.33L111.10 5.33Q110.71 5.33 110.33 5.24Q109.96 5.14 109.56 5.14L109.56 5.14Q109.00 5.14 108.40 5.28L108.40 5.28Q108.01 5.38 107.62 5.47Q107.22 5.55 106.92 5.72Q106.61 5.89 106.41 6.18Q106.21 6.48 106.21 6.99L106.21 6.99Q106.21 7.52 106.33 8.03Q106.44 8.54 106.44 9.07L106.44 9.07Q106.44 9.33 106.36 9.57Q106.28 9.81 106.20 10.04Q106.11 10.27 106.04 10.51Q105.96 10.75 105.96 11.00L105.96 11.00Q105.96 11.31 106.02 11.63Q106.08 11.94 106.23 12.19Q106.39 12.44 106.63 12.59Q106.88 12.75 107.26 12.75L107.26 12.75Q107.62 12.75 107.94 12.60Q108.27 12.46 108.62 12.46L108.62 12.46Q108.81 12.46 108.98 12.55Q109.15 12.64 109.33 12.75Q109.50 12.85 109.68 12.94Q109.87 13.04 110.09 13.04L110.09 13.04Q110.27 13.04 110.42 12.99Q110.57 12.95 110.71 12.88L110.71 12.88Q111.36 12.59 112.09 12.36Q112.81 12.13 113.53 12.13L113.53 12.13Q113.72 12.13 113.97 11.92Q114.23 11.70 114.50 11.37Q114.78 11.04 115.05 10.64Q115.32 10.23 115.54 9.83Q115.75 9.43 115.88 9.10Q116.01 8.77 116.01 8.58ZM133.17 5.55L133.17 5.55Q133.17 6.05 133.00 6.57Q132.84 7.09 132.53 7.53Q132.23 7.96 131.79 8.24Q131.35 8.53 130.82 8.53L130.82 8.53Q130.47 8.53 129.94 8.41Q129.41 8.30 128.92 8.09Q128.43 7.88 128.08 7.53Q127.73 7.19 127.73 6.73L127.73 6.73Q127.73 6.32 127.82 5.89Q127.92 5.45 127.94 5.01L127.94 5.01Q128.11 4.92 128.28 4.70Q128.45 4.48 128.61 4.24Q128.77 4.01 128.94 3.83Q129.10 3.64 129.27 3.62L129.27 3.62L129.18 3.66Q129.42 3.55 129.69 3.48Q129.95 3.42 130.23 3.42L130.23 3.42Q130.58 3.42 131.09 3.60Q131.59 3.77 132.05 4.07Q132.52 4.36 132.84 4.75Q133.17 5.14 133.17 5.55ZM141.44 26.35L141.44 26.35Q141.44 26.64 141.33 26.90Q141.21 27.15 141.02 27.35Q140.82 27.55 140.57 27.67Q140.31 27.79 140.00 27.79L140.00 27.79Q139.88 27.79 139.85 27.75Q139.81 27.72 139.73 27.63L139.73 27.63Q139.49 27.38 139.15 27.33Q138.81 27.29 138.44 27.25Q138.07 27.21 137.74 27.06Q137.40 26.91 137.20 26.47L137.20 26.47Q137.06 26.18 136.91 26.09Q136.75 26.01 136.43 26.01L136.43 26.01Q135.68 26.01 134.99 26.25Q134.31 26.49 133.64 26.79Q132.98 27.09 132.29 27.32Q131.59 27.56 130.86 27.56L130.86 27.56Q130.45 27.56 130.05 27.49Q129.65 27.41 129.27 27.24L129.27 27.24Q129.18 27.32 129.07 27.36Q128.96 27.39 128.82 27.39L128.82 27.39Q128.71 27.39 128.59 27.38Q128.48 27.36 128.40 27.36L128.40 27.36Q128.38 27.36 128.21 27.42Q128.04 27.48 128.00 27.50L128.00 27.50L128.11 27.67Q128.00 27.82 127.65 27.97Q127.29 28.11 126.87 28.21Q126.45 28.32 126.06 28.38Q125.66 28.45 125.46 28.45L125.46 28.45Q124.91 28.45 124.56 28.27Q124.21 28.09 123.87 27.65L123.87 27.65Q123.75 27.48 123.57 27.31Q123.39 27.14 123.23 26.96Q123.07 26.78 122.95 26.57Q122.84 26.37 122.84 26.15L122.84 26.15Q122.84 25.89 123.12 25.72Q123.39 25.55 123.77 25.44Q124.14 25.33 124.52 25.28Q124.89 25.24 125.10 25.24L125.10 25.24Q125.51 25.24 125.92 25.35Q126.33 25.46 126.74 25.46L126.74 25.46Q127.12 25.46 127.46 25.36Q127.80 25.26 128.18 25.26L128.18 25.26Q128.50 25.26 128.82 25.30Q129.13 25.34 129.46 25.34L129.46 25.34Q129.87 25.34 130.25 25.20Q130.64 25.05 130.98 24.81L130.98 24.81Q131.11 23.98 131.17 23.14Q131.23 22.30 131.23 21.45L131.23 21.45Q131.23 20.61 131.10 19.77Q130.96 18.93 130.96 18.11L130.96 18.11Q130.96 18.04 131.00 18.04Q131.03 18.03 131.07 18.02Q131.11 18.01 131.15 17.99Q131.18 17.96 131.18 17.86L131.18 17.86Q131.18 17.50 131.08 17.16Q130.98 16.81 130.98 16.46L130.98 16.46Q130.98 16.01 131.10 15.58Q131.22 15.16 131.22 14.71L131.22 14.71Q131.22 14.40 131.08 14.10Q130.94 13.79 130.72 13.55Q130.50 13.31 130.21 13.17Q129.92 13.02 129.59 13.02L129.59 13.02Q129.23 13.02 128.88 13.11Q128.53 13.19 128.16 13.30Q127.78 13.41 127.40 13.50Q127.01 13.58 126.59 13.58L126.59 13.58Q126.09 13.58 125.61 13.52Q125.13 13.45 124.64 13.36L124.64 13.36Q124.40 13.33 124.10 13.29Q123.80 13.26 123.53 13.17Q123.25 13.09 123.07 12.92Q122.88 12.75 122.88 12.42L122.88 12.42Q122.88 11.82 123.09 11.51Q123.30 11.19 123.62 11.04Q123.94 10.88 124.33 10.85Q124.72 10.82 125.08 10.78L125.08 10.78Q125.73 10.73 126.37 10.69Q127.01 10.65 127.66 10.65L127.66 10.65Q128.47 10.65 129.24 10.74Q130.02 10.83 130.82 10.83L130.82 10.83Q131.39 10.83 131.90 11.00Q132.41 11.17 132.80 11.53Q133.18 11.88 133.40 12.41Q133.63 12.94 133.63 13.64L133.63 13.64Q133.63 14.10 133.43 14.53Q133.23 14.97 132.93 15.31L132.93 15.31Q133.05 15.53 133.17 15.61Q133.29 15.69 133.39 15.75Q133.49 15.81 133.56 15.90Q133.63 15.99 133.63 16.25L133.63 16.25Q133.63 16.39 133.67 16.57Q133.71 16.75 133.90 16.76L133.90 16.76Q133.90 17.69 133.88 18.58Q133.87 19.48 133.87 20.39L133.87 20.39Q133.87 21.16 133.87 21.92Q133.88 22.69 134.00 23.46L134.00 23.46Q134.07 23.94 134.28 24.20Q134.48 24.45 135.01 24.45L135.01 24.45Q135.78 24.45 136.53 24.29Q137.28 24.13 138.05 24.13L138.05 24.13Q138.50 24.13 138.90 24.35Q139.30 24.57 139.67 24.83Q140.04 25.09 140.38 25.31Q140.72 25.53 141.03 25.53L141.03 25.53Q141.16 25.53 141.25 25.62Q141.33 25.72 141.38 25.85Q141.42 25.97 141.43 26.11Q141.44 26.25 141.44 26.35ZM162.35 26.27L162.35 26.27Q162.35 26.49 162.24 26.71Q162.13 26.93 161.88 26.93L161.88 26.93Q161.69 26.93 161.53 26.89Q161.38 26.85 161.19 26.85L161.19 26.85Q160.92 26.85 160.91 26.95Q160.90 27.05 160.87 27.18Q160.83 27.31 160.62 27.41Q160.41 27.51 159.72 27.51L159.72 27.51Q159.33 27.51 158.95 27.44Q158.56 27.38 158.17 27.38L158.17 27.38Q157.88 27.38 157.54 27.46L157.54 27.46Q157.40 27.29 157.24 27.21Q157.07 27.12 156.93 27.03Q156.78 26.93 156.68 26.79Q156.58 26.66 156.58 26.38L156.58 26.38Q156.58 26.20 156.34 26.20L156.34 26.20Q156.25 26.20 156.18 26.21Q156.10 26.23 156.01 26.23L156.01 26.23Q155.93 26.23 155.87 26.19Q155.81 26.15 155.81 26.06L155.81 26.06Q155.81 26.03 155.83 26.01L155.83 26.01Q155.47 26.03 155.28 26.25Q155.09 26.47 154.87 26.71L154.87 26.71Q154.72 26.86 154.54 26.94Q154.37 27.02 154.19 27.08Q154.02 27.14 153.82 27.22Q153.62 27.31 153.43 27.48L153.43 27.48Q153.28 27.63 152.92 27.71Q152.56 27.79 152.16 27.83Q151.76 27.87 151.37 27.88Q150.99 27.89 150.77 27.89L150.77 27.89Q150.26 27.89 149.94 27.80Q149.62 27.72 149.38 27.59Q149.13 27.46 148.85 27.32Q148.58 27.17 148.15 27.03L148.15 27.03Q147.69 26.90 147.04 26.52Q146.39 26.15 145.80 25.65Q145.21 25.15 144.80 24.58Q144.39 24.01 144.39 23.48L144.39 23.48Q144.39 23.24 144.28 22.99Q144.17 22.74 144.01 22.51Q143.85 22.28 143.68 22.05Q143.50 21.82 143.40 21.62L143.40 21.62Q143.08 20.97 142.98 20.25Q142.89 19.53 142.89 18.81L142.89 18.81Q142.89 18.15 142.99 17.54Q143.09 16.93 143.25 16.34Q143.40 15.75 143.56 15.17Q143.73 14.59 143.86 13.96L143.86 13.96Q143.95 13.52 144.10 13.29Q144.26 13.05 144.45 12.88Q144.65 12.71 144.88 12.56Q145.11 12.41 145.35 12.11L145.35 12.11Q145.45 12.00 145.48 11.90Q145.50 11.81 145.53 11.75Q145.56 11.69 145.63 11.66Q145.71 11.64 145.93 11.64L145.93 11.64Q146.07 11.64 146.15 11.55Q146.22 11.47 146.29 11.35Q146.36 11.23 146.42 11.10Q146.48 10.97 146.58 10.90L146.58 10.90Q146.68 10.83 146.84 10.80Q146.99 10.76 147.16 10.75Q147.33 10.73 147.50 10.71Q147.66 10.70 147.79 10.65L147.79 10.65Q148.15 10.49 148.38 10.37Q148.61 10.25 148.83 10.16Q149.04 10.06 149.32 10.01Q149.59 9.96 150.03 9.96L150.03 9.96Q150.61 9.96 151.19 10.11Q151.76 10.25 152.32 10.42Q152.89 10.59 153.45 10.74Q154.02 10.88 154.61 10.88L154.61 10.88Q155.09 10.88 155.37 10.68Q155.66 10.47 155.80 10.15Q155.95 9.82 155.99 9.43Q156.03 9.04 156.03 8.66L156.03 8.66Q156.03 8.00 155.95 7.34Q155.86 6.68 155.83 6.03L155.83 6.03L155.67 6.10Q155.50 6.10 155.37 6.01Q155.23 5.91 155.11 5.80Q154.99 5.69 154.85 5.59Q154.72 5.50 154.54 5.50L154.54 5.50Q154.36 5.50 154.31 5.59Q154.25 5.69 154.13 5.77L154.13 5.77Q153.95 5.79 153.75 5.80Q153.55 5.81 153.37 5.81L153.37 5.81L152.61 5.81Q152.37 5.81 152.08 5.66Q151.78 5.52 151.50 5.29Q151.23 5.06 151.05 4.79Q150.87 4.53 150.87 4.27L150.87 4.27Q150.87 4.05 151.02 3.80Q151.16 3.55 151.37 3.35Q151.59 3.14 151.84 3.01Q152.10 2.89 152.34 2.89L152.34 2.89Q152.56 2.89 152.75 3.00Q152.94 3.11 153.16 3.11L153.16 3.11Q153.54 3.11 153.89 2.99Q154.24 2.87 154.63 2.87L154.63 2.87Q155.02 2.87 155.37 3.00Q155.72 3.13 156.12 3.13L156.12 3.13Q156.41 3.13 156.71 3.11Q157.01 3.09 157.30 3.09L157.30 3.09Q157.60 3.09 157.92 3.14Q158.24 3.19 158.51 3.35L158.51 3.35L158.51 3.45Q158.51 3.69 158.57 3.92Q158.63 4.15 158.71 4.38Q158.78 4.61 158.84 4.83Q158.90 5.06 158.90 5.30L158.90 5.30Q158.90 5.60 158.76 5.89Q158.61 6.17 158.61 6.49L158.61 6.49Q158.61 7.09 158.75 7.68Q158.89 8.27 158.89 8.87L158.89 8.87Q158.89 10.37 158.87 11.87Q158.85 13.36 158.85 14.88L158.85 14.88Q158.85 16.42 158.75 17.93Q158.65 19.45 158.65 20.98L158.65 20.98Q158.65 21.55 158.70 22.26Q158.75 22.97 158.97 23.59Q159.19 24.21 159.63 24.64Q160.06 25.07 160.83 25.07L160.83 25.07Q160.99 25.07 161.13 25.04Q161.28 25.02 161.43 25.02L161.43 25.02Q161.65 25.02 161.83 25.14Q162.00 25.26 162.12 25.44Q162.24 25.63 162.30 25.85Q162.35 26.08 162.35 26.27ZM156.15 17.79L156.15 17.79Q156.15 17.16 156.04 16.44Q155.93 15.72 155.65 15.10Q155.37 14.47 154.88 14.05Q154.39 13.62 153.66 13.58L153.66 13.58Q153.50 13.57 153.29 13.45Q153.08 13.33 152.85 13.19Q152.63 13.05 152.42 12.94Q152.20 12.83 152.03 12.83L152.03 12.83Q151.88 12.83 151.74 12.89Q151.61 12.95 151.47 13.03Q151.33 13.11 151.20 13.17Q151.06 13.23 150.89 13.23L150.89 13.23Q150.60 13.23 150.33 13.19Q150.07 13.16 149.78 13.16L149.78 13.16Q148.92 13.16 148.23 13.67Q147.54 14.18 147.04 14.94Q146.55 15.70 146.27 16.58Q146 17.46 146 18.20L146 18.20Q146 18.51 146.04 18.81Q146.09 19.12 146.09 19.43L146.09 19.43Q146.09 19.63 145.97 19.76Q145.86 19.89 145.72 20.02Q145.57 20.15 145.46 20.29Q145.35 20.44 145.35 20.64L145.35 20.64L145.49 20.64Q145.93 20.64 146.18 20.80Q146.43 20.97 146.56 21.23Q146.68 21.50 146.76 21.84Q146.84 22.18 146.94 22.53Q147.04 22.88 147.24 23.21Q147.44 23.53 147.81 23.79L147.81 23.79Q148.08 23.98 148.42 24.20Q148.75 24.42 149.12 24.61Q149.49 24.80 149.85 24.92Q150.22 25.05 150.56 25.05L150.56 25.05Q151.11 25.05 151.64 24.89Q152.17 24.73 152.72 24.73L152.72 24.73Q152.92 24.73 153.16 24.78L153.16 24.78Q153.55 24.16 154.07 23.61Q154.60 23.05 155.35 22.83L155.35 22.83L155.33 22.45Q155.33 21.89 155.46 21.35Q155.59 20.81 155.74 20.25Q155.90 19.69 156.02 19.09Q156.15 18.49 156.15 17.79ZM180.11 23.43L180.11 23.43Q180.11 23.89 179.97 24.21Q179.82 24.54 179.59 24.80Q179.36 25.05 179.06 25.27Q178.76 25.50 178.45 25.75L178.45 25.75Q178.21 25.96 178.03 26.06Q177.84 26.16 177.66 26.23Q177.48 26.30 177.28 26.37Q177.09 26.44 176.83 26.56L176.83 26.56Q176.49 26.73 176.26 26.87Q176.03 27.02 175.80 27.14Q175.57 27.26 175.29 27.33Q175.02 27.41 174.61 27.46L174.61 27.46Q173.92 27.55 173.23 27.67Q172.54 27.79 171.86 27.79L171.86 27.79Q171.72 27.79 171.57 27.73Q171.43 27.67 171.24 27.61Q171.05 27.55 170.82 27.49Q170.59 27.43 170.27 27.43L170.27 27.43Q169.93 27.43 169.72 27.32Q169.52 27.22 169.35 27.09Q169.19 26.95 169.02 26.79Q168.85 26.62 168.58 26.50L168.58 26.50Q167.55 26.04 166.83 25.39Q166.11 24.74 165.60 23.94Q165.09 23.14 164.75 22.20Q164.41 21.26 164.17 20.23L164.17 20.23Q163.98 19.51 163.98 18.80L163.98 18.80Q163.98 17.86 164.42 17.05L164.42 17.05Q164.25 16.58 164.25 16.13L164.25 16.13Q164.25 15.81 164.44 15.17Q164.63 14.52 164.93 13.88Q165.23 13.23 165.58 12.70Q165.93 12.18 166.23 12.06L166.23 12.06Q166.47 11.98 166.57 11.92Q166.66 11.86 166.66 11.58L166.66 11.58Q166.66 11.38 166.82 11.24Q166.99 11.11 167.22 11.02Q167.45 10.94 167.68 10.87Q167.91 10.80 168.06 10.73L168.06 10.73Q168.70 10.42 169.27 10.21Q169.84 10.00 170.41 9.85Q170.99 9.71 171.60 9.64Q172.22 9.57 172.92 9.57L172.92 9.57Q173.29 9.57 173.65 9.67Q174.01 9.77 174.34 9.94Q174.68 10.10 175.00 10.29Q175.33 10.49 175.63 10.68L175.63 10.68L175.62 10.68Q175.87 10.71 176.10 10.82Q176.33 10.94 176.59 10.97L176.59 10.97Q176.83 11.26 177.21 11.53Q177.60 11.79 177.97 12.08Q178.33 12.37 178.60 12.70Q178.86 13.04 178.86 13.46L178.86 13.46Q178.86 13.53 178.86 13.60Q178.85 13.67 178.83 13.76L178.83 13.76L178.90 13.67Q178.97 13.72 179.03 13.84Q179.09 13.96 179.14 14.11Q179.19 14.25 179.22 14.40Q179.26 14.54 179.27 14.63L179.27 14.63Q179.41 14.85 179.64 14.99Q179.87 15.12 180.01 15.36L180.01 15.36Q179.84 15.53 179.84 15.81L179.84 15.81Q179.84 16.10 179.96 16.38Q180.08 16.66 180.08 16.95L180.08 16.95Q180.08 17.29 180.04 17.61Q180.01 17.93 180.01 18.27L180.01 18.27Q180.01 18.52 179.81 18.66Q179.62 18.80 179.39 18.90Q179.15 19.00 178.97 19.10Q178.78 19.21 178.78 19.40L178.78 19.40Q178.78 19.53 178.62 19.52Q178.45 19.51 178.35 19.51L178.35 19.51Q177.60 19.51 176.86 19.33Q176.11 19.14 175.38 19.14L175.38 19.14Q174.57 19.14 173.79 19.25Q173.00 19.36 172.20 19.36L172.20 19.36Q171.60 19.36 171.01 19.33Q170.42 19.29 169.82 19.29L169.82 19.29Q169.67 19.29 169.24 19.35Q168.81 19.41 168.34 19.51Q167.88 19.60 167.45 19.73Q167.02 19.86 166.85 19.98L166.85 19.98Q166.83 20.06 166.83 20.22L166.83 20.22Q166.83 21.02 167.30 21.87Q167.77 22.73 168.54 23.43Q169.31 24.13 170.27 24.59Q171.22 25.05 172.20 25.05L172.20 25.05Q172.76 25.05 173.32 25.09Q173.87 25.14 174.40 25.34L174.40 25.34Q174.86 25.12 175.25 24.83Q175.63 24.54 175.99 24.21Q176.35 23.89 176.69 23.55Q177.04 23.21 177.39 22.86L177.39 22.86Q177.46 22.80 177.73 22.74Q177.99 22.68 178.30 22.63Q178.61 22.59 178.89 22.57Q179.17 22.54 179.27 22.54L179.27 22.54Q179.67 22.54 180.01 22.66L180.01 22.66Q180.11 23.05 180.11 23.43ZM177.55 16.49L177.55 16.49Q177.55 16.23 177.46 15.99Q177.38 15.75 177.33 15.50L177.33 15.50Q177.24 15.02 177.24 14.57Q177.24 14.11 177.10 13.65L177.10 13.65L177.09 13.65Q177.09 13.76 177.02 13.85Q176.95 13.94 176.83 13.94L176.83 13.94Q176.63 13.94 176.44 13.84Q176.25 13.74 176.11 13.58L176.11 13.58Q175.46 13.29 174.94 13.04Q174.42 12.78 173.90 12.58Q173.38 12.39 172.79 12.28Q172.20 12.17 171.43 12.17L171.43 12.17Q171.36 12.17 171.30 12.17Q171.24 12.18 171.19 12.23L171.19 12.23L171.28 12.42L171.14 12.46Q170.68 12.54 170.38 12.62Q170.08 12.70 169.84 12.83Q169.60 12.97 169.37 13.17Q169.14 13.36 168.78 13.67L168.78 13.67Q168.61 13.82 168.41 13.90Q168.22 13.98 168.02 14.04Q167.82 14.10 167.64 14.17Q167.46 14.23 167.35 14.39L167.35 14.39Q167.23 14.81 166.99 15.22Q166.76 15.62 166.76 16.06L166.76 16.06Q166.76 16.32 166.98 16.52Q167.19 16.71 167.52 16.85Q167.86 16.99 168.26 17.09Q168.66 17.19 169.05 17.24Q169.45 17.29 169.78 17.32Q170.11 17.34 170.30 17.34L170.30 17.34Q170.95 17.34 171.58 17.22Q172.22 17.09 172.87 17.09L172.87 17.09Q173.53 17.09 174.20 17.15Q174.86 17.21 175.53 17.21L175.53 17.21Q175.70 17.21 176.04 17.19Q176.39 17.17 176.72 17.10Q177.05 17.02 177.30 16.87Q177.55 16.73 177.55 16.49Z"/></g>
        
      </svg>
    